<?xml version="1.0" encoding="utf-8"?>
<!-- Generator: Adobe Illustrator 19.0.0, SVG Export Plug-In . SVG Version: 6.00 Build 0)  -->
<svg version="1.1" id="Layer_1" xmlns="http://www.w3.org/2000/svg" xmlns:xlink="http://www.w3.org/1999/xlink" x="0px" y="0px"
	 viewBox="180.8 -74.6 186.3 186.3" style="enable-background:new 180.8 -74.6 186.3 186.3;" xml:space="preserve">
<style type="text/css">
	.st0{fill:#e35f99;}
	.st1{fill:#FFFFFF;}
	.st2{fill:#e35f99;}
	.st3{fill:none;stroke:#e35f99;stroke-miterlimit:10;}
</style>
<path id="XMLID_513_" class="st0" d="M274.2,65.9c-1.5,0-3-0.1-4.5-0.2l0.1-1.5c1.4,0.1,2.9,0.2,4.3,0.2l0.6,0l0,1.5L274.2,65.9z
	 M279.9,65.5l-0.2-1.5c1.6-0.2,3.2-0.5,4.8-0.9l0.4,1.5C283.2,65,281.5,65.3,279.9,65.5z M264.7,64.9c-1.7-0.4-3.3-0.8-4.9-1.3
	l0.5-1.4c1.5,0.5,3.1,0.9,4.7,1.3L264.7,64.9z M289.7,63.2l-0.5-1.4c1.5-0.6,3.1-1.2,4.5-1.9l0.7,1.3
	C292.9,61.9,291.3,62.6,289.7,63.2z M255.1,61.7c-1.5-0.7-3-1.5-4.5-2.4l0.8-1.3c1.4,0.8,2.9,1.6,4.3,2.3L255.1,61.7z M298.8,58.7
	l-0.8-1.3c1.4-0.9,2.7-1.8,4-2.9l0.9,1.2C301.6,56.8,300.2,57.8,298.8,58.7z M246.4,56.4c-1.3-1-2.6-2.1-3.9-3.3l1-1.1
	c1.2,1.1,2.4,2.2,3.7,3.2L246.4,56.4z M306.7,52.3l-1.1-1.1c1.1-1.2,2.2-2.4,3.3-3.7l1.2,0.9C309,49.8,307.9,51.1,306.7,52.3z
	 M239.1,49.4c-1.1-1.3-2.1-2.7-3-4.1l1.3-0.8c0.9,1.4,1.9,2.7,2.9,3.9L239.1,49.4z M313,44.3l-1.3-0.8c0.9-1.4,1.7-2.8,2.4-4.3
	l1.4,0.6C314.7,41.4,313.9,42.9,313,44.3z M233.5,40.9c-0.8-1.5-1.5-3.1-2.1-4.6l1.4-0.5c0.6,1.5,1.2,3,2,4.5L233.5,40.9z
	 M317.4,35.2l-1.4-0.5c0.5-1.5,1-3.1,1.3-4.7l1.5,0.3C318.4,31.9,317.9,33.6,317.4,35.2z M229.9,31.4c-0.4-1.6-0.7-3.3-1-5l1.5-0.2
	c0.2,1.6,0.5,3.2,0.9,4.8L229.9,31.4z M319.6,25.3l-1.5-0.2c0.2-1.6,0.3-3.3,0.3-4.9c0-0.8,0-1.5-0.1-2.3l1.5-0.1
	c0,0.8,0.1,1.6,0.1,2.4C319.9,21.9,319.8,23.6,319.6,25.3z M228.6,21.4c0-0.4,0-0.8,0-1.2c0-1.3,0.1-2.6,0.2-3.9l1.5,0.1
	c-0.1,1.2-0.2,2.5-0.2,3.8c0,0.4,0,0.8,0,1.2L228.6,21.4z M317.8,13c-0.3-1.6-0.6-3.2-1.1-4.8l1.4-0.4c0.5,1.6,0.8,3.3,1.1,5
	L317.8,13z M230.9,11.6l-1.5-0.3c0.3-1.7,0.8-3.3,1.3-4.9l1.4,0.5C231.6,8.4,231.2,10,230.9,11.6z M315.1,3.6
	c-0.6-1.5-1.3-3-2.1-4.4l1.3-0.7c0.8,1.5,1.5,3,2.2,4.6L315.1,3.6z M233.8,2.2l-1.4-0.6c0.7-1.5,1.5-3.1,2.3-4.5l1.3,0.8
	C235.3-0.7,234.5,0.7,233.8,2.2z M310.5-5c-0.9-1.3-2-2.6-3-3.9l1.1-1c1.1,1.3,2.2,2.6,3.1,4L310.5-5z M238.8-6.2l-1.2-0.9
	c1-1.4,2.1-2.7,3.3-3.9l1.1,1C240.9-8.8,239.8-7.5,238.8-6.2z M304-12.4c-1.2-1.1-2.5-2.1-3.8-3.1l0.9-1.2c1.4,1,2.7,2.1,3.9,3.2
	L304-12.4z M245.5-13.4l-1-1.1c1.3-1.1,2.6-2.1,4-3.1l0.8,1.2C248.1-15.5,246.8-14.5,245.5-13.4z M296.1-18.2
	c-1.4-0.8-2.9-1.5-4.4-2.2l0.6-1.4c1.6,0.7,3.1,1.4,4.5,2.3L296.1-18.2z M253.6-18.9l-0.7-1.3c1.5-0.8,3.1-1.5,4.6-2.1l0.5,1.4
	C256.6-20.3,255.1-19.7,253.6-18.9z M287-22.1c-1.6-0.5-3.2-0.9-4.8-1.2l0.3-1.5c1.7,0.3,3.3,0.7,4.9,1.2L287-22.1z M262.8-22.5
	l-0.4-1.4c1.6-0.4,3.3-0.8,5-1l0.2,1.5C266-23.2,264.4-22.9,262.8-22.5z M277.4-23.9c-1.6-0.1-3.3-0.1-4.9-0.1l-0.1-1.5
	c1.7-0.1,3.4,0,5.1,0.1L277.4-23.9z"/>
<circle id="XMLID_510_" class="st1" cx="274.2" cy="-19.4" r="21.2"/>
<circle id="XMLID_511_" class="st1" cx="240.8" cy="35.3" r="21.2"/>
<circle id="XMLID_512_" class="st1" cx="310" cy="35.2" r="21.2"/>
<path id="XMLID_79_" class="st0" d="M357.7,23.8l9.3-5.4l-9.3-5.1c-2.6-42-36.2-75.7-78-78.5l-5.5-9.4l-5.1,9.3
	C248-64.2,229-55.2,214.8-41.2l-4.1-3.4l-1,1.1l4,3.3c-13.4,13.7-22.2,32.1-23.7,52.4l-9.3,5.4l9.2,5c1.1,22.4,11,42.5,26.4,56.9
	l-3.8,3.6l1,1.1l3.8-3.6c13.8,12.5,31.8,20.6,51.6,21.7l5.4,9.3l5.1-9.3c21.5-1.4,40.8-11,54.9-25.6l3.5,2.9l1-1.1l-3.4-2.9
	C348.2,61.8,356.5,43.7,357.7,23.8z M273.9,101c-21.3,0-40.7-8.1-55.4-21.4l2.7-2.5l-1-1.1l-2.7,2.6c-16-15.1-26-36.4-26-60.1
	c0-22.4,9-42.8,23.6-57.7l2.9,2.4l1-1.1l-2.8-2.4C230.9-54.9,251.3-64,273.9-64c45.5,0,82.5,37,82.5,82.5c0,21.7-8.4,41.4-22.1,56.1
	l-3.4-2.9l-1,1.1l3.4,2.8C318.2,91.3,297.2,101,273.9,101z"/>
<circle id="XMLID_387_" class="st1" cx="334.1" cy="-41.7" r="21.2"/>
<path id="XMLID_386_" class="st2" d="M347.6-30.4l-9.8-3.4v4.6l-4-2.8l-0.3,0.2c0.9,0,1.8,0.9,1.7,1.8c0,0.1,0,0.1,0,0.2
	c0.1,0.4,0.2,0.8,0.2,1.2c0,0.4-0.1,0.7-0.3,1c0,1,0,2.1,0.1,3.1c0.2,0.1,0.3,0.2,0.4,0.4c0.5,0.7,0.7,1.6,1,2.4
	c0.1,0.2,0.1,0.4,0.1,0.5l0.2,0l5.4-1.4l3.4-2.3l2.7-2.2L347.6-30.4z"/>
<polygon id="XMLID_426_" class="st2" points="263.3,-0.8 263.7,-9.7 265.4,-12.1 266.3,-12 266.3,-7.6 270.7,-7.9 274.1,-4.4 
	276.9,-6.5 279.2,-13.1 283.3,-11.7 285.1,-9.2 284.9,-0.8 279.2,2 270.9,2.2 "/>
<path id="XMLID_151_" class="st0" d="M274.2-41.3c-12.1,0-22,9.9-22,22s9.9,22,22,22s22-9.9,22-22S286.4-41.3,274.2-41.3z
	 M263.9-2.1c0.1-0.1,0.2-0.3,0.2-0.4v-6.4c0-1.1,0.7-2.2,1.7-2.6L265.7-8c0,0,0,0,0,0c0,0,0,0,0,0c0,0,0,0.1,0,0.1c0,0,0,0.1,0,0.1
	c0,0,0,0.1,0.1,0.1c0,0,0,0.1,0.1,0.1c0,0,0.1,0.1,0.1,0.1c0,0,0.1,0,0.1,0.1c0,0,0.1,0,0.1,0c0,0,0.1,0,0.1,0c0,0,0,0,0,0l0,0l0,0
	l0,0l0,0c0,0,0,0,0,0l1.5-0.1l-0.1,0.1l6.3,3.1l0-0.1c0.1,0,0.1,0,0.2,0c0,0,0,0,0,0c0,0,0,0,0,0s0,0,0,0c0,0,0,0,0,0
	c0.1,0,0.2,0,0.3-0.1c0,0,0,0,0,0c0.1-0.1,0.2-0.2,0.4-0.3l5.6-2.8L278.2-9l3.8-2.9l0.5,0.2c1.1,0.5,1.8,1.5,1.8,2.7v6.4
	c0,0.2,0.1,0.3,0.2,0.4c-3,1.8-6.5,2.9-10.3,2.9C270.4,0.8,266.9-0.3,263.9-2.1z M278.2-9L278.2-9L278.2-9L278.2-9z M281.3-13.5
	l-2.1-0.9c-0.3-0.1-0.7,0-0.8,0.3l-1.1,3.1c0,0,0,0,0,0l0,0v0c0,0.1-0.1,0.1-0.1,0.2c-0.1,0.8-0.3,1.9-1,3c-0.6,0.9-1.4,1.7-2,2.1
	c-0.6-0.4-1.4-1.2-2-2.1c-0.7-1.1-0.9-2.3-1-3c0-0.2-0.1-0.3-0.2-0.4l0.1-4.8l1.8,0.8c0.4,0.2,0.9,0.3,1.3,0.3
	c0.5,0,0.9-0.1,1.3-0.3l2.6-1.2c1.2-0.5,1.9-1.7,1.9-3v-5.4c0,0,0,0,0,0c0,0,0-0.1,0-0.1c0,0,0-0.1,0-0.1c0,0,0-0.1-0.1-0.1
	c0,0,0-0.1-0.1-0.1c0,0-0.1,0-0.1-0.1c0,0-0.1,0-0.1-0.1c0,0,0,0,0,0c-0.1,0-0.2,0-0.3-0.1c-0.4-0.1-1-0.2-1.4-0.6
	c-0.9-0.7-1.3-1.8-1.5-2.3l0-0.1c-0.1-0.3-0.5-0.5-0.8-0.4c-0.1,0-0.2,0.1-0.2,0.1c0,0,0,0-0.1,0c0,0-0.1,0-0.1-0.1c0,0-0.1,0-0.1,0
	c0,0-0.1,0-0.1,0c0,0-0.1,0-0.1,0c0,0-0.1,0-0.1,0c0,0-0.1,0-0.1,0l-0.2,0.1c-0.4,0.2-1.1,0.5-1.6,0.7c-0.5,0.1-0.8,0.2-1.1,0.3
	c-0.4,0.1-0.7,0.1-1,0.3c-0.6,0.3-2.4,1.3-2.4,3.6v4.5c0,1.1,0.6,2.2,1.5,2.8l-0.2,7.9L267-8.7l0.6-15.7c0,0,0,0,0,0s0,0,0,0
	c0-3.7,3-6.7,6.7-6.7c3.7,0,6.7,3,6.7,6.7c0,0,0,0,0,0s0,0,0,0L281.3-13.5z M269.6-23.8c0-1.5,1.2-2.2,1.7-2.4
	c0.2-0.1,0.5-0.2,0.8-0.2c0.1,0,0.1,0,0.2,0c-0.1,0.1-0.2,0.3-0.3,0.4c-0.3,0.5-0.6,1.1-0.8,1.7c-0.1,0.3,0.1,0.7,0.4,0.8
	c0.1,0,0.1,0,0.2,0c0.3,0,0.5-0.2,0.6-0.4c0.1-0.5,0.4-1,0.6-1.4c0.5-0.8,1.9-1.9,2.4-2.3c0,0,0,0,0,0c0.2,0.7,0.7,1.9,1.8,2.8
	c0.6,0.4,1.2,0.6,1.6,0.7v4.9c0,0.8-0.5,1.5-1.2,1.8l-2.6,1.2c-0.5,0.2-1.1,0.2-1.7,0l-2.6-1.2c0,0,0,0,0,0c-0.7-0.3-1.2-1-1.2-1.8
	L269.6-23.8L269.6-23.8z M285.5-2.8v-6.2c0-1.7-1-3.2-2.6-3.8l-0.4-0.2l-0.4-11.4c0,0,0,0,0,0c0-4.4-3.6-7.9-7.9-7.9
	c-4.4,0-7.9,3.5-7.9,7.9c0,0,0,0,0,0l-0.4,11.6c-0.1,0-0.3,0-0.4,0c-1.6,0.7-2.6,2.2-2.6,3.8v6.2c-5.2-3.6-8.7-9.7-8.7-16.5
	c0-11,9-20,20-20s20,9,20,20C294.2-12.4,290.8-6.4,285.5-2.8z"/>
<line id="XMLID_391_" class="st3" x1="273.9" y1="-5.4" x2="273.9" y2="1.2"/>
<rect id="XMLID_390_" x="262.9" y="-7.1" class="st0" width="1.2" height="5.9"/>
<rect id="XMLID_389_" x="284.3" y="-6.9" class="st0" width="1.2" height="5.9"/>
<polygon id="XMLID_462_" class="st2" points="299.2,52.8 299.2,45.4 300.4,43.1 305.1,40.6 307.8,41.5 310.1,44.2 312.1,41.2 
	314.9,40.6 319.5,42.6 321,44.3 320.7,53.9 315.5,56.6 310.8,56.6 303.4,55.8 "/>
<g id="XMLID_443_">
	<path id="XMLID_444_" class="st0" d="M310,44.5c-0.2,0-0.4-0.1-0.5-0.2l-1.8-2.2c-0.2-0.3-0.2-0.7,0.1-0.9c0.3-0.2,0.7-0.2,0.9,0.1
		l1.8,2.2c0.2,0.3,0.2,0.7-0.1,0.9C310.2,44.5,310.1,44.5,310,44.5z"/>
</g>
<path id="XMLID_112_" class="st0" d="M309.7,13.3c-12.1,0-22,9.9-22,22s9.9,22,22,22s22-9.9,22-22C331.8,23.1,321.9,13.3,309.7,13.3
	z M305.2,41.1l2.8,1.2c0.1,0,0.2,0.1,0.3,0.1c0.2,0,0.4-0.1,0.5-0.3l1.3-2.1l1,1.7l-1.5,1.9c0,0,0,0,0,0c0,0,0,0,0,0c0,0,0,0,0,0.1
	c0,0,0,0,0,0c0,0,0,0.1,0,0.1c0,0,0,0,0,0c0,0,0,0,0,0l-0.9,4.6c0,0,0,0,0,0l-1.3,6.8c-2.8-0.4-5.5-1.3-7.8-2.7
	c0.2-0.1,0.4-0.3,0.4-0.6v-6.5c0-1.2,0.7-2.3,1.8-2.7L305.2,41.1z M314.7,28.4V29c-0.1-0.1-0.2-0.2-0.3-0.3
	c-0.2-0.2-0.3-0.5-0.3-0.7c0.3,0,0.5,0.1,0.7,0.1C314.8,28.2,314.7,28.3,314.7,28.4z M310,27.6c-1.8,1-3.8,1.1-4.6,0.6
	c-0.3-0.2-0.4-0.4-0.4-0.5c0-1.3,2.2-3.2,5-3.2c2.3,0,3.7,1.3,4.4,2.3C313.3,26.7,311.5,26.7,310,27.6z M305.3,29.5
	c0.4,0.2,1,0.2,1.5,0.2c1.2,0,2.6-0.4,3.9-1.1c0.7-0.4,1.5-0.6,2.2-0.6c0,0.4,0.2,1,0.6,1.5c0.4,0.5,0.9,0.8,1.3,0.9v4.3
	c0,0.8-0.5,1.5-1.2,1.9l-0.8,0.4c-0.1,0-0.2,0-0.3,0.1c0,0,0,0,0,0l-1.6,0.7c-0.5,0.2-1.1,0.2-1.7,0l-2.7-1.2
	c-0.7-0.3-1.2-1.1-1.2-1.9L305.3,29.5L305.3,29.5z M314.8,41.1l3.6,1.5c1.1,0.5,1.8,1.5,1.8,2.7v6.5c0,0.1,0.1,0.3,0.1,0.4
	c-2.3,1.5-4.9,2.5-7.7,2.9l-0.6-3.3c0,0,0-0.1,0-0.1l-1.4-7.7l1.5-1.8L314.8,41.1z M312,40.9l-1.1-1.8c0.1,0,0.3-0.1,0.4-0.1
	l1.2-0.6l1.2,1.7L312,40.9z M308.7,38.9c0.1,0.1,0.2,0.1,0.4,0.1l-1.1,1.8l-1.8-0.8l1.2-1.8L308.7,38.9z M308.5,55.3l0.6-3.3
	c0,0,0,0,0,0l0.9-4.6l0.2,1.2c0,0,0,0.1,0,0.1l1.2,6.6c-0.6,0-1.1,0.1-1.7,0.1C309.3,55.3,308.9,55.3,308.5,55.3z M321.6,51.4v-6.1
	c0-1.7-1-3.3-2.6-3.9l-3.8-1.6l-1.4-2l0.3-0.1c1.2-0.5,1.9-1.7,1.9-3v-6.3c0-0.1,0-0.2,0-0.2c0,0,0.1,0,0.1-0.1
	c0.2-0.2,0.2-0.4,0.1-0.7c-0.1-0.2-1.7-4.2-6.2-4.2c-3.5,0-6.2,2.4-6.2,4.5c0,0.3,0.1,0.6,0.2,0.9v6.2c0,1.3,0.8,2.5,1.9,3l0.2,0.1
	l-1.4,2l-3.7,1.6c-1.6,0.7-2.6,2.2-2.6,3.9v6.5c0,0,0,0,0,0c-5.3-3.6-8.8-9.7-8.8-16.6c0-11,9-20,20-20s20,9,20,20
	C329.8,41.9,326.5,47.8,321.6,51.4z"/>
<path id="XMLID_429_" class="st0" d="M320.9,53.1L320.9,53.1c-0.4,0-0.6-0.3-0.6-0.6v-3.2c0-0.4,0.3-0.6,0.6-0.6l0,0
	c0.4,0,0.6,0.3,0.6,0.6v3.2C321.6,52.8,321.3,53.1,320.9,53.1z"/>
<path id="XMLID_428_" class="st0" d="M299.1,53.1L299.1,53.1c-0.4,0-0.6-0.3-0.6-0.6v-3.2c0-0.4,0.3-0.6,0.6-0.6l0,0
	c0.4,0,0.6,0.3,0.6,0.6v3.2C299.7,52.8,299.5,53.1,299.1,53.1z"/>
<polygon id="XMLID_500_" class="st2" points="230.6,53.4 231.2,44.1 232.8,42.2 237,40.6 240.3,43.5 241.8,42.2 243.6,43.6 
	246.8,40.4 251.6,42.6 252.4,43.5 253,44.7 253,45.8 253.2,52.7 249.7,54.6 245,55.7 239.9,56.3 234.4,55 "/>
<rect id="XMLID_471_" x="230.4" y="48.5" class="st0" width="1.3" height="5.4"/>
<g id="XMLID_67_">
	<path id="XMLID_116_" class="st0" d="M246,24.2c-1-0.4-2-0.2-2.6,0c-0.7-0.5-1.7-0.9-3-1c-2.6-0.2-4,0.9-4.6,1.7
		c-1,1.4-0.8,3-0.7,3.6c0.1,0.3,0.3,0.5,0.6,0.5c0,0,0.1,0,0.1,0c0,0,0,0,0.1,0v5.7c0,1.3,0.8,2.5,2,3l2.7,1.2
		c0.4,0.2,0.9,0.3,1.4,0.3s0.9-0.1,1.4-0.3l2.7-1.2c1.2-0.5,2-1.7,2-3v-6.2c0.2-0.4,0.3-0.8,0.3-1.3C248.4,25.8,247.2,24.6,246,24.2
		z M236.5,26.6c0.1-0.3,0.2-0.6,0.4-0.9c0.7-0.9,1.8-1.3,3.5-1.2c0.8,0,1.4,0.3,2,0.5h-3C238.1,25,237,25.7,236.5,26.6z M245.6,36.6
		l-2.7,1.2c-0.5,0.2-1.2,0.2-1.7,0l-2.7-1.2c-0.7-0.3-1.2-1.1-1.2-1.9v-6.4c0-1.1,0.9-2.1,2.1-2.1h5.4c1.1,0,2,0.9,2,2
		c-0.1,0.2-0.2,0.3-0.3,0.4c-0.3,0.2-0.3,0.7,0,0.9c0.1,0.1,0.2,0.1,0.3,0.2v5C246.8,35.6,246.3,36.3,245.6,36.6z"/>
	<path id="XMLID_118_" class="st0" d="M241,33.1l-2.6,0.9c-0.3,0.1-0.5,0.5-0.4,0.8c0.1,0.3,0.3,0.4,0.6,0.4c0.1,0,0.1,0,0.2,0
		l2.6-0.9c0.3-0.1,0.5-0.5,0.4-0.8C241.7,33.2,241.3,33,241,33.1z"/>
	<path id="XMLID_119_" class="st0" d="M245.6,34l-2.6-0.9c-0.3-0.1-0.7,0.1-0.8,0.4c-0.1,0.3,0.1,0.7,0.4,0.8l2.6,0.9
		c0.1,0,0.1,0,0.2,0c0.3,0,0.5-0.2,0.6-0.4C246.1,34.5,246,34.1,245.6,34z"/>
	<path id="XMLID_122_" class="st0" d="M241.3,13.3c-12.2,0-22,9.9-22,22s9.9,22,22,22c12.2,0,22-9.9,22-22S253.4,13.3,241.3,13.3z
		 M237,41.3l0.7,0.8v4.2h-2.8v-4L237,41.3z M239.9,44.3C239.9,44.3,239.9,44.3,239.9,44.3C239.9,44.3,239.9,44.3,239.9,44.3
		c0,0,0.1,0.1,0.1,0.1c0,0,0.1,0,0.1,0.1c0.1,0,0.2,0,0.2,0c0.1,0,0.2,0,0.2,0c0,0,0.1,0,0.1-0.1c0,0,0.1,0,0.1-0.1c0,0,0,0,0,0
		c0,0,0,0,0,0l0.5-0.5v2.4h-2.6V43L239.9,44.3z M243.2,44.3C243.2,44.3,243.2,44.3,243.2,44.3C243.2,44.3,243.2,44.3,243.2,44.3
		c0,0,0.1,0.1,0.2,0.1c0,0,0,0,0.1,0c0.1,0,0.2,0,0.2,0s0.2,0,0.2,0c0,0,0.1,0,0.1-0.1c0,0,0.1,0,0.1-0.1c0,0,0,0,0,0c0,0,0,0,0,0
		l1.1-1.1v3h-2.8v-2.8L243.2,44.3z M247,41.3l1.9,0.8v4.1h-2.8v-4L247,41.3z M234.9,50.4v-3.3h2.8v3.3H234.9z M237.7,51.4V55
		c-1-0.2-1.9-0.4-2.8-0.7v-2.8L237.7,51.4L237.7,51.4z M231.6,47.2h2.2v3.3h-2.2V47.2z M238.7,47.2h2.6v3.3h-2.6V47.2z M242.3,47.2
		h2.8v3.3h-2.8V47.2z M246.2,47.2h2.8v3.3h-2.8V47.2z M245.2,51.4V55c-0.9,0.2-1.9,0.3-2.8,0.3v-3.9H245.2z M246.2,51.4h2.8v2.4
		c-0.9,0.4-1.9,0.7-2.8,0.9V51.4z M250,51.4h2.4V52c-0.8,0.5-1.6,0.9-2.4,1.3V51.4z M250,50.4v-3.3h2.4v3.3H250z M252.4,46.2H250
		v-3.7l0.5,0.2c1.1,0.5,1.8,1.6,1.8,2.8V46.2z M233.9,46.2h-2.2v-0.7c0-1.2,0.7-2.3,1.8-2.8l0.4-0.2V46.2z M231.6,52v-0.6h2.2v2.5
		c-0.9-0.4-1.8-0.8-2.6-1.3C231.5,52.5,231.6,52.3,231.6,52z M238.7,55.1v-3.7h2.6v3.9c0,0,0,0,0,0
		C240.4,55.3,239.5,55.3,238.7,55.1z M253.6,51v-5.5c0-1.7-1-3.3-2.6-3.9l-1-0.4V41h-0.2l-2.6-1.1c0,0,0,0,0,0c-0.1,0-0.1,0-0.2,0
		c0,0,0,0-0.1,0c-0.1,0-0.1,0-0.2,0c0,0-0.1,0-0.1,0c0,0,0,0-0.1,0c0,0-0.1,0.1-0.1,0.1c0,0,0,0,0,0l-1.1,1.1h-0.2v0.2l-1.5,1.5
		l-1.2-1.2c-0.1-0.1-0.3-0.2-0.5-0.2s-0.3,0.1-0.5,0.2l-1.2,1.2l-2.8-2.8c0,0,0,0,0,0c0,0-0.1-0.1-0.1-0.1c0,0-0.1,0-0.1-0.1
		c0,0-0.1,0-0.1,0c-0.1,0-0.1,0-0.2,0c0,0,0,0-0.1,0c-0.1,0-0.1,0-0.2,0c0,0,0,0,0,0l-3.9,1.6c-1.6,0.7-2.6,2.2-2.6,3.9v6.5
		c0,0,0,0,0,0c-5.5-3.6-9.1-9.8-9.1-16.8c0-11,9-20,20-20s20,9,20,20C261.3,41.7,258.3,47.4,253.6,51z"/>
</g>
<polygon id="XMLID_501_" class="st0" points="240.3,-1.7 233.6,-8.2 240.4,-8.9 "/>
<polygon id="XMLID_502_" class="st0" points="305.4,-5.6 312.9,-11.4 312.6,-4.5 "/>
<polygon id="XMLID_503_" class="st0" points="277.5,60.4 277.3,69.8 272.1,65.3 "/>
<g id="XMLID_552_">
	<path id="XMLID_553_" class="st0" d="M195.5,14.6h1c0.1,0,0.2,0,0.3,0.1c0.1,0,0.1,0.1,0.1,0.2l1.1,3.9c0,0.1,0,0.2,0.1,0.3
		c0,0.1,0,0.2,0.1,0.4c0-0.1,0.1-0.2,0.1-0.4c0-0.1,0.1-0.2,0.1-0.3l1.3-3.9c0-0.1,0.1-0.1,0.1-0.2c0.1-0.1,0.2-0.1,0.3-0.1h0.4
		c0.1,0,0.2,0,0.3,0.1c0.1,0.1,0.1,0.1,0.1,0.2l1.3,3.9c0.1,0.2,0.1,0.4,0.2,0.6c0-0.2,0.1-0.5,0.1-0.6l1.1-3.9
		c0-0.1,0.1-0.1,0.1-0.2c0.1-0.1,0.2-0.1,0.3-0.1h0.9l-2,6.5h-1.1l-1.4-4.4c0-0.1,0-0.1-0.1-0.2c0-0.1,0-0.1-0.1-0.2
		c0,0.1,0,0.1-0.1,0.2s0,0.1-0.1,0.2l-1.4,4.4h-1.1L195.5,14.6z"/>
</g>
<g id="XMLID_549_">
	<path id="XMLID_550_" class="st0" d="M350.6,15v1h-2.9v1.8h2.3v0.9h-2.3v1.8h2.9v1h-4.1V15L350.6,15L350.6,15z"/>
</g>
<g id="XMLID_546_">
	<path id="XMLID_547_" class="st0" d="M272.4-58.8C272.5-58.8,272.5-58.8,272.4-58.8c0.1,0,0.2,0.1,0.2,0.1c0,0,0.1,0.1,0.1,0.1
		l3.4,4.4c0-0.1,0-0.2,0-0.3s0-0.2,0-0.3v-4h1.1v6.5h-0.6c-0.1,0-0.2,0-0.2,0s-0.1-0.1-0.2-0.2l-3.4-4.3c0,0.1,0,0.2,0,0.3
		s0,0.2,0,0.3v4h-1.1v-6.5h0.6C272.4-58.8,272.4-58.8,272.4-58.8z"/>
</g>
<g id="XMLID_358_">
	<path id="XMLID_359_" class="st0" d="M276.3,90.1c0,0.1-0.1,0.1-0.1,0.1c0,0-0.1,0-0.2,0c-0.1,0-0.1,0-0.2-0.1
		c-0.1,0-0.2-0.1-0.3-0.2c-0.1-0.1-0.2-0.1-0.4-0.2c-0.1,0-0.3-0.1-0.5-0.1c-0.2,0-0.3,0-0.4,0.1s-0.2,0.1-0.3,0.2
		c-0.1,0.1-0.1,0.2-0.2,0.3c0,0.1-0.1,0.2-0.1,0.3c0,0.2,0,0.3,0.1,0.4c0.1,0.1,0.2,0.2,0.3,0.3c0.1,0.1,0.3,0.1,0.5,0.2
		c0.2,0.1,0.4,0.1,0.6,0.2c0.2,0.1,0.4,0.1,0.6,0.2c0.2,0.1,0.3,0.2,0.5,0.3c0.1,0.1,0.3,0.3,0.3,0.5c0.1,0.2,0.1,0.4,0.1,0.7
		c0,0.3-0.1,0.6-0.2,0.8c-0.1,0.3-0.2,0.5-0.4,0.7c-0.2,0.2-0.4,0.3-0.7,0.4s-0.6,0.2-1,0.2c-0.2,0-0.4,0-0.6-0.1
		c-0.2,0-0.4-0.1-0.6-0.2c-0.2-0.1-0.4-0.2-0.5-0.3c-0.2-0.1-0.3-0.2-0.4-0.4l0.4-0.6c0,0,0.1-0.1,0.1-0.1s0.1,0,0.2,0
		c0.1,0,0.2,0,0.2,0.1s0.2,0.1,0.3,0.2c0.1,0.1,0.3,0.1,0.4,0.2c0.2,0.1,0.4,0.1,0.6,0.1c0.3,0,0.6-0.1,0.8-0.2
		c0.2-0.2,0.3-0.4,0.3-0.7c0-0.2,0-0.3-0.1-0.4c-0.1-0.1-0.2-0.2-0.3-0.3c-0.1-0.1-0.3-0.1-0.5-0.2s-0.4-0.1-0.5-0.2
		c-0.2-0.1-0.4-0.1-0.5-0.2s-0.3-0.2-0.5-0.3c-0.1-0.1-0.3-0.3-0.3-0.5c-0.1-0.2-0.1-0.5-0.1-0.7c0-0.2,0-0.5,0.1-0.7
		c0.1-0.2,0.2-0.4,0.4-0.6c0.2-0.2,0.4-0.3,0.7-0.4c0.3-0.1,0.6-0.2,0.9-0.2c0.4,0,0.7,0.1,1.1,0.2s0.6,0.3,0.8,0.5L276.3,90.1z"/>
</g>
<polygon id="XMLID_80_" class="st2" points="319.1,-28 320.2,-30.4 329.7,-33.7 329.7,-28.8 331.4,-29.7 332.1,-26.7 330.8,-20.7 
	322.9,-23.5 "/>
<g id="XMLID_81_">
	<path id="XMLID_104_" class="st0" d="M328.1-44c0.1,0,0.1,0.1,0.1,0.1c0,0,0,0.1,0,0.2c0.1,0.4,0.2,1,0.4,1.4
		c0.2,0.5,0.4,0.7,0.9,0.9c0.3,0.1,0.7,0.2,1.1,0.2c0.4,0,0.8-0.1,1.1-0.2c0.8-0.4,1-0.9,1.3-1.6c0-0.1,0.1-0.2,0.1-0.3
		c0.2-0.5,0.2-0.6,0.5-0.6s0.3,0.1,0.5,0.6c0,0.1,0.1,0.2,0.1,0.3c0.2,0.7,0.4,1.2,1.3,1.6c0.3,0.1,0.7,0.2,1.1,0.2
		c0.4,0,0.9-0.1,1.2-0.2c0.5-0.2,0.7-0.4,0.9-0.9c0.2-0.4,0.3-1.1,0.4-1.4c0-0.1,0-0.2,0-0.2c0,0,0.1-0.1,0.1-0.1
		c0.1,0,0.1-0.1,0.1-0.1l0-0.7c0-0.1,0-0.1-0.1-0.1c0,0-0.9-0.4-2.6-0.4c-0.9,0-1.4,0.1-1.8,0.3c-0.4,0.1-0.7,0.2-1.1,0.2
		c-0.5,0-0.8-0.1-1.1-0.2c-0.4-0.1-0.9-0.3-1.8-0.3c-1.6,0-2.5,0.4-2.6,0.4c0,0-0.1,0.1-0.1,0.1l0,0.7C328-44.1,328.1-44,328.1-44z
		 M334.8-44.3c0.2-0.3,1.1-0.5,1.8-0.5c0.7,0,1.5,0.1,1.7,0.5c0.2,0.4-0.1,1.8-0.3,2.1c-0.2,0.3-0.6,0.5-1.3,0.5
		c-0.8,0-1.3-0.3-1.6-0.8C334.7-43.3,334.6-43.9,334.8-44.3z M329.1-44.2c0.2-0.4,1-0.5,1.7-0.5c0.7,0,1.6,0.2,1.8,0.5
		c0.2,0.3,0.1,1-0.3,1.8c-0.3,0.5-0.8,0.8-1.6,0.8c-0.6,0-1-0.1-1.3-0.5C329.2-42.5,328.9-43.8,329.1-44.2z"/>
	<path id="XMLID_148_" class="st0" d="M334.1-63.7c-8.4,0-15.7,4.7-19.4,11.6C313-49,312-45.4,312-41.7c0,4.5,1.4,8.7,3.8,12.2
		c4,5.9,10.7,9.8,18.3,9.8c12.2,0,22-9.9,22-22S346.3-63.7,334.1-63.7z M330.5-22c-4-0.7-7.5-2.6-10.3-5.3v-1.2
		c0-0.7,0.4-1.3,1.1-1.6l7.9-2.8v5.1l1.9-1.1l0.4,2.3L330.5-22z M327.6-44.4c-0.1-0.3-0.2-0.7-0.3-0.9c-0.1-0.4-0.2-1.1-0.2-1.3
		c0-3.6,1.7-7.9,6.5-7.9c4.6,0,6.4,4,6.5,7.4c-0.3-0.9-1.3-2.3-3-2.3c0.1-0.2,0.2-0.5,0.4-0.7l0.4-0.5l-0.5-0.4
		c-0.4-0.3-1.4-0.5-3.4,1.5c-2.2,2.2-3.9,2.2-4,2.2h-0.4v1.4l0.3,0c0.1,0,2.3,0.1,5-2.6c0.3-0.3,0.6-0.6,0.8-0.7
		c0,0.2,0,0.4,0.1,0.6c0.1,0.2,0.4,0.6,1.2,0.6c1.3,0,1.8,1.5,1.8,1.6l0.2,0.7l1-0.3c0,0.2-0.1,0.4-0.1,0.6
		c-0.1,0.3-0.1,0.6-0.2,0.8c-0.1,0.4,0,0.7,0.1,0.9c0.3,0.3,0.7,0.2,0.9,0.2c0.2,0.2,0.4,1.2-0.3,2.1c-0.2,0.2-0.3,0.3-0.3,0.3
		c-0.3-0.2-0.5-0.1-0.6-0.1c-0.2,0.1-0.4,0.3-0.5,0.6l0,0.2c-0.3,1.4-1.1,2.7-2.2,3.6l-0.2,0.2v2.2h-6.1l-0.1-2.2l-0.5-0.5
		c-0.8-0.9-1.4-2-1.7-3.2l-0.2-0.7l-0.3-0.1c-0.3-0.1-0.5,0-0.7,0.1c-0.1,0-0.2-0.1-0.3-0.3c-0.6-0.8-0.4-1.9-0.3-2
		c0.4,0.2,0.7,0.2,1,0C327.5-43.6,327.8-43.9,327.6-44.4z M336.6-33.1v2.9l-3-1.8l-3.1,1.8v-2.9H336.6z M334.1-21.6
		c-0.8,0-1.5-0.1-2.3-0.1l1-4.8l-0.5-3.1l1.3-0.8l1.2,0.8l-0.6,3.1l1,4.8C334.9-21.7,334.5-21.6,334.1-21.6z M347.4-26.7
		c-2.9,2.6-6.6,4.4-10.7,4.9l-1-4.7l0.4-2.4l1.9,1.1v-5.1l8.3,2.8c0.7,0.2,1.1,0.9,1.1,1.6V-26.7L347.4-26.7z M348.7-28v-0.4
		c0-1.3-0.8-2.4-2-2.9l-8.7-2.9v-1.8c1.1-1,1.8-2.3,2.3-3.7c0,0,0,0,0.1,0c0.4-0.1,0.9-0.3,1.3-0.9c0.6-0.8,0.8-1.8,0.7-2.8
		c-0.1-0.6-0.4-1.1-0.8-1.3c-0.1-0.1-0.2-0.1-0.3-0.1c0-0.1,0.1-0.2,0.1-0.3c0.1-0.5,0.2-1.4,0.2-1.5c0-5.6-3.1-9.2-7.9-9.2
		s-7.9,3.6-7.9,9.3c0,0.1,0,1,0.2,1.7c0,0,0,0.1,0,0.1c-0.1,0-0.2,0.1-0.3,0.1c-0.4,0.2-0.6,0.7-0.8,1.3c-0.2,0.9,0.1,2,0.7,2.8
		c0.5,0.7,1,0.9,1.4,0.9c0.3,1.3,1,2.6,2,3.6l0.1,0.1l0.1,1.8l-8.4,3c-1.1,0.4-1.8,1.4-1.9,2.6c-3-3.5-4.8-8-4.8-13c0-11,9-20,20-20
		c11,0,20,9,20,20C354.1-36.4,352.1-31.6,348.7-28z"/>
</g>
</svg>
